<?xml version="1.0" encoding="UTF-8" standalone="no"?><!DOCTYPE svg PUBLIC "-//W3C//DTD SVG 1.1//EN" "http://www.w3.org/Graphics/SVG/1.1/DTD/svg11.dtd"><svg width="100%" height="100%" viewBox="0 0 725 109" version="1.1" xmlns="http://www.w3.org/2000/svg" xmlns:xlink="http://www.w3.org/1999/xlink" xml:space="preserve" xmlns:serif="http://www.serif.com/" style="fill-rule:evenodd;clip-rule:evenodd;stroke-linejoin:round;stroke-miterlimit:2;"><rect id="Artboard1" x="0" y="0" width="725" height="108.333" style="fill:none;"/><clipPath id="_clip1"><rect id="Artboard11" serif:id="Artboard1" x="0" y="0" width="725" height="108.333"/></clipPath><g clip-path="url(#_clip1)"><g><g><path d="M93.383,39.154l-32.078,0c-4.2,0 -8.084,2.229 -10.204,5.854l-14.132,24.171l31.687,0c4.442,0 8.551,-2.357 10.793,-6.192l13.934,-23.833Z" style="fill:#ee3e36;"/><path d="M36.969,69.179l14.132,-24.171c-5.7,9.75 -17.373,29.715 -26.096,44.636c-2.246,3.841 -2.265,8.59 -0.051,12.45c2.214,3.859 6.324,6.239 10.773,6.239l52.069,0c4.442,0 8.551,-2.357 10.793,-6.192c5.809,-9.935 17.435,-29.82 26.077,-44.603c2.209,-3.779 2.228,-8.45 0.05,-12.246c-2.178,-3.797 -6.22,-6.138 -10.597,-6.138l-52.814,0l32.078,0l-13.934,23.833c-2.242,3.835 -6.351,6.192 -10.793,6.192l-31.687,0Z" style="fill:#264082;"/><path d="M36.969,69.179l14.132,-24.171c2.12,-3.625 6.004,-5.854 10.204,-5.854l32.078,0l-12.758,21.822l24.901,-42.592c2.209,-3.779 2.228,-8.45 0.05,-12.246c-2.178,-3.797 -6.22,-6.138 -10.597,-6.138l-52.814,0c-4.2,-0 -8.085,2.229 -10.204,5.854c-5.7,9.75 -17.373,29.715 -26.096,44.636c-2.246,3.841 -2.265,8.59 -0.051,12.449c2.214,3.86 6.324,6.24 10.773,6.24l20.382,0Z" style="fill:#f4bf3d;"/><path d="M5.437,62.23l18.582,37.83l0,0c-1.209,-3.412 -0.879,-7.227 0.986,-10.416l11.964,-20.465l-20.382,0c-4.449,0 -8.559,-2.38 -10.773,-6.24c-0.134,-0.233 -0.26,-0.469 -0.377,-0.709Zm-0.019,-0.038l0.019,0.038l-0.019,-0.038l0,-0Z" style="fill:#00bfe4;"/><path d="M106.263,7.533l16.742,35.453l-0,0c-2.28,-2.415 -5.482,-3.832 -8.886,-3.832l-20.736,0c-0,0 12.143,-20.77 12.143,-20.77c1.945,-3.327 2.192,-7.346 0.737,-10.851Z" style="fill:#00bfe4;"/></g></g><g><path d="M186.674,23.213l0,6.724c5.489,-5.306 11.572,-7.959 18.249,-7.959c9.148,0 16.466,3.705 21.954,11.114c3.019,-3.476 6.632,-6.174 10.84,-8.095c4.208,-2.013 8.461,-3.019 12.761,-3.019c7.318,0 13.721,2.607 19.21,7.821c5.488,5.123 8.232,12.121 8.232,20.994l0,45.143l-19.896,-0l0,-40.752c0,-4.666 -1.006,-8.325 -3.018,-10.977c-1.921,-2.745 -4.803,-4.117 -8.645,-4.117c-8.324,0 -12.989,4.848 -13.995,14.545l-0,41.301l-19.896,-0l0,-40.752c0,-4.666 -1.006,-8.325 -3.019,-10.977c-1.921,-2.745 -4.802,-4.117 -8.644,-4.117c-4.848,0 -8.416,1.647 -10.703,4.94c-2.286,3.202 -3.43,7.409 -3.43,12.623l0,38.283l-19.896,-0l0,-72.723l19.896,0Z" style="fill:#18344b;fill-rule:nonzero;"/><path d="M299.325,32.818c7.318,-7.227 16.1,-10.84 26.345,-10.84c8.873,0 16.74,2.836 23.601,8.507c6.86,5.672 11.205,12.807 13.035,21.405c0.64,2.745 0.96,5.398 0.96,7.959c0,2.47 -0.274,4.848 -0.823,7.135l-54.61,-0c1.097,4.025 3.247,7.135 6.449,9.33c3.201,2.104 6.997,3.156 11.388,3.156c6.952,0 12.669,-2.058 17.152,-6.174l17.288,4.939c-2.835,5.672 -7.546,10.245 -14.132,13.721c-6.587,3.385 -13.356,5.077 -20.308,5.077c-10.428,0 -19.301,-3.659 -26.619,-10.977c-7.227,-7.409 -10.84,-16.236 -10.84,-26.482c0,-10.519 3.705,-19.438 11.114,-26.756Zm8.508,19.072l35.263,0c-1.098,-3.476 -3.202,-6.403 -6.312,-8.781c-3.11,-2.378 -6.86,-3.568 -11.251,-3.568c-4.391,0 -8.187,1.19 -11.389,3.568c-3.11,2.378 -5.214,5.305 -6.311,8.781Z" style="fill:#18344b;fill-rule:nonzero;"/><path d="M382.613,32.818c7.318,-7.227 16.1,-10.84 26.345,-10.84c8.873,0 16.74,2.836 23.6,8.507c6.861,5.672 11.206,12.807 13.036,21.405c0.64,2.745 0.96,5.398 0.96,7.959c0,2.47 -0.274,4.848 -0.823,7.135l-54.611,-0c1.098,4.025 3.248,7.135 6.449,9.33c3.202,2.104 6.998,3.156 11.389,3.156c6.952,0 12.669,-2.058 17.152,-6.174l17.288,4.939c-2.835,5.672 -7.546,10.245 -14.133,13.721c-6.586,3.385 -13.355,5.077 -20.307,5.077c-10.428,0 -19.301,-3.659 -26.619,-10.977c-7.227,-7.409 -10.84,-16.236 -10.84,-26.482c0,-10.519 3.705,-19.438 11.114,-26.756Zm8.507,19.072l35.264,0c-1.098,-3.476 -3.202,-6.403 -6.312,-8.781c-3.11,-2.378 -6.86,-3.568 -11.251,-3.568c-4.391,0 -8.187,1.19 -11.389,3.568c-3.11,2.378 -5.214,5.305 -6.312,8.781Z" style="fill:#18344b;fill-rule:nonzero;"/><path d="M456.845,23.213l19.896,0l-0,6.724c5.488,-5.306 12.257,-7.959 20.307,-7.959c8.233,0 15.322,2.653 21.268,7.959c5.946,5.214 8.919,12.166 8.919,20.856l-0,45.143l-19.896,-0l0,-40.066c0,-4.574 -1.418,-8.279 -4.253,-11.115c-2.745,-2.835 -6.129,-4.253 -10.154,-4.253c-4.848,-0 -8.782,1.738 -11.8,5.214c-2.928,3.385 -4.391,7.592 -4.391,12.623l-0,37.597l-19.896,-0l0,-72.723Z" style="fill:#18344b;fill-rule:nonzero;"/><path d="M548.091,32.955c7.318,-7.318 16.146,-10.977 26.482,-10.977c10.245,0 19.027,3.705 26.345,11.114c7.409,7.318 11.114,16.1 11.114,26.345c0,10.337 -3.659,19.21 -10.977,26.619c-7.318,7.318 -16.145,10.977 -26.482,10.977c-10.245,0 -19.072,-3.704 -26.482,-11.114c-7.318,-7.409 -10.977,-16.237 -10.977,-26.482c0,-10.245 3.659,-19.072 10.977,-26.482Zm7.547,26.482c-0,5.306 1.829,9.879 5.488,13.721c3.659,3.842 8.142,5.763 13.447,5.763c5.306,0 9.788,-1.921 13.447,-5.763c3.659,-3.842 5.488,-8.415 5.488,-13.721c0,-5.305 -1.829,-9.833 -5.488,-13.584c-3.659,-3.842 -8.141,-5.763 -13.447,-5.763c-5.305,0 -9.788,1.921 -13.447,5.763c-3.659,3.751 -5.488,8.279 -5.488,13.584Z" style="fill:#18344b;fill-rule:nonzero;"/><path d="M630.967,32.818c7.318,-7.227 16.1,-10.84 26.345,-10.84c8.873,0 16.74,2.836 23.601,8.507c6.86,5.672 11.205,12.807 13.035,21.405c0.64,2.745 0.96,5.398 0.96,7.959c0,2.47 -0.274,4.848 -0.823,7.135l-54.61,-0c1.097,4.025 3.247,7.135 6.449,9.33c3.201,2.104 6.997,3.156 11.388,3.156c6.952,0 12.669,-2.058 17.152,-6.174l17.288,4.939c-2.835,5.672 -7.546,10.245 -14.132,13.721c-6.587,3.385 -13.356,5.077 -20.308,5.077c-10.428,0 -19.301,-3.659 -26.619,-10.977c-7.227,-7.409 -10.84,-16.236 -10.84,-26.482c0,-10.519 3.705,-19.438 11.114,-26.756Zm8.508,19.072l35.263,0c-1.098,-3.476 -3.201,-6.403 -6.312,-8.781c-3.11,-2.378 -6.86,-3.568 -11.251,-3.568c-4.391,0 -8.187,1.19 -11.389,3.568c-3.11,2.378 -5.214,5.305 -6.311,8.781Z" style="fill:#18344b;fill-rule:nonzero;"/></g></g></svg>